<mxfile host="Electron" modified="2024-04-09T13:46:34.653Z" agent="Mozilla/5.0 (Windows NT 10.0; Win64; x64) AppleWebKit/537.36 (KHTML, like Gecko) draw.io/22.1.2 Chrome/114.0.5735.289 Electron/25.9.4 Safari/537.36" etag="aYvS37G9zOHBDW_oF98B" version="22.1.2" type="device">
  <diagram name="Page-1" id="FsPGoLa5j6CkaIurj-D7">
    <mxGraphModel dx="2071" dy="2391" grid="0" gridSize="10" guides="1" tooltips="1" connect="1" arrows="1" fold="1" page="1" pageScale="1" pageWidth="850" pageHeight="1100" background="none" math="0" shadow="0">
      <root>
        <object label="" id="0">
          <mxCell />
        </object>
        <mxCell id="1" parent="0" />
        <mxCell id="v9g8-YcQeXMahOsh9rem-4" value="&lt;p&gt;user&lt;/p&gt;" style="swimlane;whiteSpace=wrap;html=1;hachureGap=4;fontFamily=Architects Daughter;fontSource=https%3A%2F%2Ffonts.googleapis.com%2Fcss%3Ffamily%3DArchitects%2BDaughter;fontSize=20;startSize=40;labelBackgroundColor=none;fillColor=#B1DDF0;strokeColor=#BAC8D3;fontColor=#182E3E;rounded=0;" vertex="1" parent="1">
          <mxGeometry x="1330" y="-540" width="200" height="430" as="geometry" />
        </mxCell>
        <mxCell id="v9g8-YcQeXMahOsh9rem-5" value="name ( string)" style="whiteSpace=wrap;html=1;labelBackgroundColor=none;fillColor=#B1DDF0;strokeColor=#BAC8D3;fontColor=#182E3E;rounded=0;" vertex="1" parent="v9g8-YcQeXMahOsh9rem-4">
          <mxGeometry y="70" width="200" height="30" as="geometry" />
        </mxCell>
        <mxCell id="v9g8-YcQeXMahOsh9rem-6" value="id" style="whiteSpace=wrap;html=1;labelBackgroundColor=none;fillColor=#B1DDF0;strokeColor=#BAC8D3;fontColor=#182E3E;rounded=0;" vertex="1" parent="v9g8-YcQeXMahOsh9rem-4">
          <mxGeometry y="40" width="200" height="30" as="geometry" />
        </mxCell>
        <mxCell id="v9g8-YcQeXMahOsh9rem-8" value="password ( string)" style="whiteSpace=wrap;html=1;labelBackgroundColor=none;fillColor=#B1DDF0;strokeColor=#BAC8D3;fontColor=#182E3E;rounded=0;" vertex="1" parent="v9g8-YcQeXMahOsh9rem-4">
          <mxGeometry y="130" width="200" height="30" as="geometry" />
        </mxCell>
        <mxCell id="v9g8-YcQeXMahOsh9rem-12" value="servey-attempts&amp;nbsp; [ids ]" style="whiteSpace=wrap;html=1;labelBackgroundColor=none;fillColor=#B1DDF0;strokeColor=#BAC8D3;fontColor=#182E3E;rounded=0;" vertex="1" parent="v9g8-YcQeXMahOsh9rem-4">
          <mxGeometry y="280" width="200" height="30" as="geometry" />
        </mxCell>
        <mxCell id="v9g8-YcQeXMahOsh9rem-61" value="username&amp;nbsp; [ string ]" style="whiteSpace=wrap;html=1;labelBackgroundColor=none;fillColor=#B1DDF0;strokeColor=#BAC8D3;fontColor=#182E3E;rounded=0;" vertex="1" parent="v9g8-YcQeXMahOsh9rem-4">
          <mxGeometry y="100" width="200" height="30" as="geometry" />
        </mxCell>
        <mxCell id="v9g8-YcQeXMahOsh9rem-10" value="quiz-attempts&amp;nbsp; [ ids ]" style="whiteSpace=wrap;html=1;labelBackgroundColor=none;fillColor=#B1DDF0;strokeColor=#BAC8D3;fontColor=#182E3E;rounded=0;" vertex="1" parent="v9g8-YcQeXMahOsh9rem-4">
          <mxGeometry y="250" width="200" height="30" as="geometry" />
        </mxCell>
        <mxCell id="v9g8-YcQeXMahOsh9rem-9" value="email ( string )" style="whiteSpace=wrap;html=1;labelBackgroundColor=none;fillColor=#B1DDF0;strokeColor=#BAC8D3;fontColor=#182E3E;rounded=0;" vertex="1" parent="v9g8-YcQeXMahOsh9rem-4">
          <mxGeometry y="160" width="200" height="30" as="geometry" />
        </mxCell>
        <mxCell id="v9g8-YcQeXMahOsh9rem-63" value="intrests&amp;nbsp; [ string ]" style="whiteSpace=wrap;html=1;labelBackgroundColor=none;fillColor=#B1DDF0;strokeColor=#BAC8D3;fontColor=#182E3E;rounded=0;" vertex="1" parent="v9g8-YcQeXMahOsh9rem-4">
          <mxGeometry y="400" width="200" height="30" as="geometry" />
        </mxCell>
        <mxCell id="v9g8-YcQeXMahOsh9rem-64" value="starServey&amp;nbsp; [ ids ]" style="whiteSpace=wrap;html=1;labelBackgroundColor=none;fillColor=#B1DDF0;strokeColor=#BAC8D3;fontColor=#182E3E;rounded=0;" vertex="1" parent="v9g8-YcQeXMahOsh9rem-4">
          <mxGeometry y="310" width="200" height="30" as="geometry" />
        </mxCell>
        <mxCell id="v9g8-YcQeXMahOsh9rem-65" value="starQuiz&amp;nbsp; [ ids ]" style="whiteSpace=wrap;html=1;labelBackgroundColor=none;fillColor=#B1DDF0;strokeColor=#BAC8D3;fontColor=#182E3E;rounded=0;" vertex="1" parent="v9g8-YcQeXMahOsh9rem-4">
          <mxGeometry y="340" width="200" height="30" as="geometry" />
        </mxCell>
        <mxCell id="v9g8-YcQeXMahOsh9rem-74" value="bio ( string )" style="whiteSpace=wrap;html=1;labelBackgroundColor=none;fillColor=#B1DDF0;strokeColor=#BAC8D3;fontColor=#182E3E;rounded=0;" vertex="1" parent="v9g8-YcQeXMahOsh9rem-4">
          <mxGeometry y="190" width="200" height="30" as="geometry" />
        </mxCell>
        <mxCell id="v9g8-YcQeXMahOsh9rem-83" value="blogs&amp;nbsp; [ ids ]" style="whiteSpace=wrap;html=1;labelBackgroundColor=none;fillColor=#B1DDF0;strokeColor=#BAC8D3;fontColor=#182E3E;rounded=0;" vertex="1" parent="v9g8-YcQeXMahOsh9rem-4">
          <mxGeometry y="370" width="200" height="30" as="geometry" />
        </mxCell>
        <mxCell id="v9g8-YcQeXMahOsh9rem-84" value="Image ( string )" style="whiteSpace=wrap;html=1;labelBackgroundColor=none;fillColor=#B1DDF0;strokeColor=#BAC8D3;fontColor=#182E3E;rounded=0;" vertex="1" parent="v9g8-YcQeXMahOsh9rem-4">
          <mxGeometry y="220" width="200" height="30" as="geometry" />
        </mxCell>
        <mxCell id="v9g8-YcQeXMahOsh9rem-93" style="edgeStyle=orthogonalEdgeStyle;rounded=0;orthogonalLoop=1;jettySize=auto;html=1;exitX=0.5;exitY=1;exitDx=0;exitDy=0;entryX=0.475;entryY=0.667;entryDx=0;entryDy=0;entryPerimeter=0;labelBackgroundColor=none;strokeColor=#EEEEEE;fontColor=default;" edge="1" parent="v9g8-YcQeXMahOsh9rem-4" source="v9g8-YcQeXMahOsh9rem-63" target="v9g8-YcQeXMahOsh9rem-63">
          <mxGeometry relative="1" as="geometry" />
        </mxCell>
        <mxCell id="v9g8-YcQeXMahOsh9rem-13" value="&lt;p&gt;Quiz&lt;/p&gt;" style="swimlane;whiteSpace=wrap;html=1;hachureGap=4;fontFamily=Architects Daughter;fontSource=https%3A%2F%2Ffonts.googleapis.com%2Fcss%3Ffamily%3DArchitects%2BDaughter;fontSize=20;startSize=40;labelBackgroundColor=none;fillColor=#B1DDF0;strokeColor=#BAC8D3;fontColor=#182E3E;rounded=0;" vertex="1" parent="1">
          <mxGeometry x="880" y="30" width="200" height="220" as="geometry" />
        </mxCell>
        <mxCell id="v9g8-YcQeXMahOsh9rem-14" value="name ( string)" style="whiteSpace=wrap;html=1;labelBackgroundColor=none;fillColor=#B1DDF0;strokeColor=#BAC8D3;fontColor=#182E3E;rounded=0;" vertex="1" parent="v9g8-YcQeXMahOsh9rem-13">
          <mxGeometry y="70" width="200" height="30" as="geometry" />
        </mxCell>
        <mxCell id="v9g8-YcQeXMahOsh9rem-15" value="id" style="whiteSpace=wrap;html=1;labelBackgroundColor=none;fillColor=#B1DDF0;strokeColor=#BAC8D3;fontColor=#182E3E;rounded=0;" vertex="1" parent="v9g8-YcQeXMahOsh9rem-13">
          <mxGeometry y="40" width="200" height="30" as="geometry" />
        </mxCell>
        <mxCell id="v9g8-YcQeXMahOsh9rem-18" value="queistions&amp;nbsp; [ ids ]" style="whiteSpace=wrap;html=1;labelBackgroundColor=none;fillColor=#B1DDF0;strokeColor=#BAC8D3;fontColor=#182E3E;rounded=0;" vertex="1" parent="v9g8-YcQeXMahOsh9rem-13">
          <mxGeometry y="100" width="200" height="30" as="geometry" />
        </mxCell>
        <mxCell id="v9g8-YcQeXMahOsh9rem-69" value="keywords [ string ]" style="whiteSpace=wrap;html=1;labelBackgroundColor=none;fillColor=#B1DDF0;strokeColor=#BAC8D3;fontColor=#182E3E;rounded=0;" vertex="1" parent="v9g8-YcQeXMahOsh9rem-13">
          <mxGeometry y="130" width="200" height="30" as="geometry" />
        </mxCell>
        <mxCell id="v9g8-YcQeXMahOsh9rem-71" value="attempts [ ids ]" style="whiteSpace=wrap;html=1;labelBackgroundColor=none;fillColor=#B1DDF0;strokeColor=#BAC8D3;fontColor=#182E3E;rounded=0;" vertex="1" parent="v9g8-YcQeXMahOsh9rem-13">
          <mxGeometry y="160" width="200" height="30" as="geometry" />
        </mxCell>
        <mxCell id="v9g8-YcQeXMahOsh9rem-100" value="owner ( id )" style="whiteSpace=wrap;html=1;labelBackgroundColor=none;fillColor=#B1DDF0;strokeColor=#BAC8D3;fontColor=#182E3E;rounded=0;" vertex="1" parent="v9g8-YcQeXMahOsh9rem-13">
          <mxGeometry y="190" width="200" height="30" as="geometry" />
        </mxCell>
        <mxCell id="v9g8-YcQeXMahOsh9rem-20" value="&lt;p&gt;specialQue&lt;/p&gt;" style="swimlane;whiteSpace=wrap;html=1;hachureGap=4;fontFamily=Architects Daughter;fontSource=https%3A%2F%2Ffonts.googleapis.com%2Fcss%3Ffamily%3DArchitects%2BDaughter;fontSize=20;startSize=40;labelBackgroundColor=none;fillColor=#B1DDF0;strokeColor=#BAC8D3;fontColor=#182E3E;rounded=0;" vertex="1" parent="1">
          <mxGeometry x="560" y="-280" width="200" height="190" as="geometry" />
        </mxCell>
        <mxCell id="v9g8-YcQeXMahOsh9rem-21" value="que ( string )" style="whiteSpace=wrap;html=1;labelBackgroundColor=none;fillColor=#B1DDF0;strokeColor=#BAC8D3;fontColor=#182E3E;rounded=0;" vertex="1" parent="v9g8-YcQeXMahOsh9rem-20">
          <mxGeometry y="70" width="200" height="30" as="geometry" />
        </mxCell>
        <mxCell id="v9g8-YcQeXMahOsh9rem-22" value="id" style="whiteSpace=wrap;html=1;labelBackgroundColor=none;fillColor=#B1DDF0;strokeColor=#BAC8D3;fontColor=#182E3E;rounded=0;" vertex="1" parent="v9g8-YcQeXMahOsh9rem-20">
          <mxGeometry y="40" width="200" height="30" as="geometry" />
        </mxCell>
        <mxCell id="v9g8-YcQeXMahOsh9rem-23" value="ans ( string)" style="whiteSpace=wrap;html=1;labelBackgroundColor=none;fillColor=#B1DDF0;strokeColor=#BAC8D3;fontColor=#182E3E;rounded=0;" vertex="1" parent="v9g8-YcQeXMahOsh9rem-20">
          <mxGeometry y="100" width="200" height="30" as="geometry" />
        </mxCell>
        <mxCell id="v9g8-YcQeXMahOsh9rem-29" value="options [ string ]" style="whiteSpace=wrap;html=1;labelBackgroundColor=none;fillColor=#B1DDF0;strokeColor=#BAC8D3;fontColor=#182E3E;rounded=0;" vertex="1" parent="v9g8-YcQeXMahOsh9rem-20">
          <mxGeometry y="130" width="200" height="30" as="geometry" />
        </mxCell>
        <mxCell id="v9g8-YcQeXMahOsh9rem-103" value="correct ( string )" style="whiteSpace=wrap;html=1;labelBackgroundColor=none;fillColor=#B1DDF0;strokeColor=#BAC8D3;fontColor=#182E3E;rounded=0;" vertex="1" parent="v9g8-YcQeXMahOsh9rem-20">
          <mxGeometry y="160" width="200" height="30" as="geometry" />
        </mxCell>
        <mxCell id="v9g8-YcQeXMahOsh9rem-112" style="edgeStyle=orthogonalEdgeStyle;rounded=0;orthogonalLoop=1;jettySize=auto;html=1;exitX=1;exitY=0.5;exitDx=0;exitDy=0;entryX=0;entryY=0.5;entryDx=0;entryDy=0;labelBackgroundColor=none;strokeColor=#b85450;fontColor=default;strokeWidth=3;fillColor=#f8cecc;" edge="1" parent="1" source="v9g8-YcQeXMahOsh9rem-32">
          <mxGeometry relative="1" as="geometry">
            <mxPoint x="1090" y="-300" as="sourcePoint" />
            <mxPoint x="1330" y="-247.5" as="targetPoint" />
            <Array as="points">
              <mxPoint x="1240" y="-305" />
              <mxPoint x="1240" y="-247" />
            </Array>
          </mxGeometry>
        </mxCell>
        <mxCell id="v9g8-YcQeXMahOsh9rem-30" value="&lt;p&gt;survey&lt;/p&gt;" style="swimlane;whiteSpace=wrap;html=1;hachureGap=4;fontFamily=Architects Daughter;fontSource=https%3A%2F%2Ffonts.googleapis.com%2Fcss%3Ffamily%3DArchitects%2BDaughter;fontSize=20;startSize=40;labelBackgroundColor=none;fillColor=#B1DDF0;strokeColor=#BAC8D3;fontColor=#182E3E;rounded=0;" vertex="1" parent="1">
          <mxGeometry x="890" y="-360" width="200" height="250" as="geometry" />
        </mxCell>
        <mxCell id="v9g8-YcQeXMahOsh9rem-31" value="name ( string )" style="whiteSpace=wrap;html=1;labelBackgroundColor=none;fillColor=#B1DDF0;strokeColor=#BAC8D3;fontColor=#182E3E;rounded=0;" vertex="1" parent="v9g8-YcQeXMahOsh9rem-30">
          <mxGeometry y="70" width="200" height="30" as="geometry" />
        </mxCell>
        <mxCell id="v9g8-YcQeXMahOsh9rem-32" value="id" style="whiteSpace=wrap;html=1;labelBackgroundColor=none;fillColor=#B1DDF0;strokeColor=#BAC8D3;fontColor=#182E3E;rounded=0;" vertex="1" parent="v9g8-YcQeXMahOsh9rem-30">
          <mxGeometry y="40" width="200" height="30" as="geometry" />
        </mxCell>
        <mxCell id="v9g8-YcQeXMahOsh9rem-33" value="questions [ ids ]" style="whiteSpace=wrap;html=1;labelBackgroundColor=none;fillColor=#B1DDF0;strokeColor=#BAC8D3;fontColor=#182E3E;rounded=0;" vertex="1" parent="v9g8-YcQeXMahOsh9rem-30">
          <mxGeometry y="100" width="200" height="30" as="geometry" />
        </mxCell>
        <mxCell id="v9g8-YcQeXMahOsh9rem-34" value="specialQue&amp;nbsp;[ ids ]" style="whiteSpace=wrap;html=1;labelBackgroundColor=none;fillColor=#B1DDF0;strokeColor=#BAC8D3;fontColor=#182E3E;rounded=0;" vertex="1" parent="v9g8-YcQeXMahOsh9rem-30">
          <mxGeometry y="130" width="200" height="30" as="geometry" />
        </mxCell>
        <mxCell id="v9g8-YcQeXMahOsh9rem-70" value="keywords [ string ]" style="whiteSpace=wrap;html=1;labelBackgroundColor=none;fillColor=#B1DDF0;strokeColor=#BAC8D3;fontColor=#182E3E;rounded=0;" vertex="1" parent="v9g8-YcQeXMahOsh9rem-30">
          <mxGeometry y="160" width="200" height="30" as="geometry" />
        </mxCell>
        <mxCell id="v9g8-YcQeXMahOsh9rem-72" value="attempts [ string ]" style="whiteSpace=wrap;html=1;labelBackgroundColor=none;fillColor=#B1DDF0;strokeColor=#BAC8D3;fontColor=#182E3E;rounded=0;" vertex="1" parent="v9g8-YcQeXMahOsh9rem-30">
          <mxGeometry y="190" width="200" height="30" as="geometry" />
        </mxCell>
        <mxCell id="v9g8-YcQeXMahOsh9rem-101" value="owner ( id )" style="whiteSpace=wrap;html=1;labelBackgroundColor=none;fillColor=#B1DDF0;strokeColor=#BAC8D3;fontColor=#182E3E;rounded=0;" vertex="1" parent="v9g8-YcQeXMahOsh9rem-30">
          <mxGeometry y="220" width="200" height="30" as="geometry" />
        </mxCell>
        <mxCell id="v9g8-YcQeXMahOsh9rem-35" value="&lt;p&gt;Questions&lt;/p&gt;" style="swimlane;whiteSpace=wrap;html=1;hachureGap=4;fontFamily=Architects Daughter;fontSource=https%3A%2F%2Ffonts.googleapis.com%2Fcss%3Ffamily%3DArchitects%2BDaughter;fontSize=20;startSize=40;labelBackgroundColor=none;fillColor=#B1DDF0;strokeColor=#BAC8D3;fontColor=#182E3E;rounded=0;" vertex="1" parent="1">
          <mxGeometry x="540" y="50" width="200" height="220" as="geometry" />
        </mxCell>
        <mxCell id="v9g8-YcQeXMahOsh9rem-36" value="que ( string )" style="whiteSpace=wrap;html=1;labelBackgroundColor=none;fillColor=#B1DDF0;strokeColor=#BAC8D3;fontColor=#182E3E;rounded=0;" vertex="1" parent="v9g8-YcQeXMahOsh9rem-35">
          <mxGeometry y="70" width="200" height="30" as="geometry" />
        </mxCell>
        <mxCell id="v9g8-YcQeXMahOsh9rem-37" value="id" style="whiteSpace=wrap;html=1;labelBackgroundColor=none;fillColor=#B1DDF0;strokeColor=#BAC8D3;fontColor=#182E3E;rounded=0;" vertex="1" parent="v9g8-YcQeXMahOsh9rem-35">
          <mxGeometry y="40" width="200" height="30" as="geometry" />
        </mxCell>
        <mxCell id="v9g8-YcQeXMahOsh9rem-38" value="type ( string)" style="whiteSpace=wrap;html=1;labelBackgroundColor=none;fillColor=#B1DDF0;strokeColor=#BAC8D3;fontColor=#182E3E;rounded=0;" vertex="1" parent="v9g8-YcQeXMahOsh9rem-35">
          <mxGeometry y="100" width="200" height="30" as="geometry" />
        </mxCell>
        <mxCell id="v9g8-YcQeXMahOsh9rem-39" value="correct ( string )" style="whiteSpace=wrap;html=1;labelBackgroundColor=none;fillColor=#B1DDF0;strokeColor=#BAC8D3;fontColor=#182E3E;rounded=0;" vertex="1" parent="v9g8-YcQeXMahOsh9rem-35">
          <mxGeometry y="130" width="200" height="30" as="geometry" />
        </mxCell>
        <mxCell id="v9g8-YcQeXMahOsh9rem-40" value="options [ string ]" style="whiteSpace=wrap;html=1;labelBackgroundColor=none;fillColor=#B1DDF0;strokeColor=#BAC8D3;fontColor=#182E3E;rounded=0;" vertex="1" parent="v9g8-YcQeXMahOsh9rem-35">
          <mxGeometry y="160" width="200" height="30" as="geometry" />
        </mxCell>
        <mxCell id="v9g8-YcQeXMahOsh9rem-42" style="edgeStyle=orthogonalEdgeStyle;rounded=0;orthogonalLoop=1;jettySize=auto;html=1;exitX=0.5;exitY=1;exitDx=0;exitDy=0;labelBackgroundColor=none;strokeColor=#EEEEEE;fontColor=default;" edge="1" parent="v9g8-YcQeXMahOsh9rem-35" source="v9g8-YcQeXMahOsh9rem-40" target="v9g8-YcQeXMahOsh9rem-40">
          <mxGeometry relative="1" as="geometry" />
        </mxCell>
        <mxCell id="v9g8-YcQeXMahOsh9rem-102" value="ans ( string )" style="whiteSpace=wrap;html=1;labelBackgroundColor=none;fillColor=#B1DDF0;strokeColor=#BAC8D3;fontColor=#182E3E;rounded=0;" vertex="1" parent="v9g8-YcQeXMahOsh9rem-35">
          <mxGeometry y="190" width="200" height="30" as="geometry" />
        </mxCell>
        <mxCell id="v9g8-YcQeXMahOsh9rem-45" value="&lt;p&gt;Admin&lt;/p&gt;" style="swimlane;whiteSpace=wrap;html=1;hachureGap=4;fontFamily=Architects Daughter;fontSource=https%3A%2F%2Ffonts.googleapis.com%2Fcss%3Ffamily%3DArchitects%2BDaughter;fontSize=20;startSize=40;labelBackgroundColor=none;fillColor=#B1DDF0;strokeColor=#BAC8D3;fontColor=#182E3E;rounded=0;" vertex="1" parent="1">
          <mxGeometry x="1770" y="-280" width="200" height="250" as="geometry" />
        </mxCell>
        <mxCell id="v9g8-YcQeXMahOsh9rem-46" value="name ( string)" style="whiteSpace=wrap;html=1;labelBackgroundColor=none;fillColor=#B1DDF0;strokeColor=#BAC8D3;fontColor=#182E3E;rounded=0;" vertex="1" parent="v9g8-YcQeXMahOsh9rem-45">
          <mxGeometry y="70" width="200" height="30" as="geometry" />
        </mxCell>
        <mxCell id="v9g8-YcQeXMahOsh9rem-47" value="id" style="whiteSpace=wrap;html=1;labelBackgroundColor=none;fillColor=#B1DDF0;strokeColor=#BAC8D3;fontColor=#182E3E;rounded=0;" vertex="1" parent="v9g8-YcQeXMahOsh9rem-45">
          <mxGeometry y="40" width="200" height="30" as="geometry" />
        </mxCell>
        <mxCell id="v9g8-YcQeXMahOsh9rem-48" value="password ( string)" style="whiteSpace=wrap;html=1;labelBackgroundColor=none;fillColor=#B1DDF0;strokeColor=#BAC8D3;fontColor=#182E3E;rounded=0;" vertex="1" parent="v9g8-YcQeXMahOsh9rem-45">
          <mxGeometry y="100" width="200" height="30" as="geometry" />
        </mxCell>
        <mxCell id="v9g8-YcQeXMahOsh9rem-49" value="email ( string )" style="whiteSpace=wrap;html=1;labelBackgroundColor=none;fillColor=#B1DDF0;strokeColor=#BAC8D3;fontColor=#182E3E;rounded=0;" vertex="1" parent="v9g8-YcQeXMahOsh9rem-45">
          <mxGeometry y="130" width="200" height="30" as="geometry" />
        </mxCell>
        <mxCell id="v9g8-YcQeXMahOsh9rem-50" value="users [ ids ]" style="whiteSpace=wrap;html=1;labelBackgroundColor=none;fillColor=#B1DDF0;strokeColor=#BAC8D3;fontColor=#182E3E;rounded=0;" vertex="1" parent="v9g8-YcQeXMahOsh9rem-45">
          <mxGeometry y="190" width="200" height="30" as="geometry" />
        </mxCell>
        <mxCell id="v9g8-YcQeXMahOsh9rem-51" value="members&amp;nbsp; [ids ]" style="whiteSpace=wrap;html=1;labelBackgroundColor=none;fillColor=#B1DDF0;strokeColor=#BAC8D3;fontColor=#182E3E;rounded=0;" vertex="1" parent="v9g8-YcQeXMahOsh9rem-45">
          <mxGeometry y="220" width="200" height="30" as="geometry" />
        </mxCell>
        <mxCell id="v9g8-YcQeXMahOsh9rem-67" value="pin [&amp;nbsp; string ]" style="whiteSpace=wrap;html=1;labelBackgroundColor=none;fillColor=#B1DDF0;strokeColor=#BAC8D3;fontColor=#182E3E;rounded=0;" vertex="1" parent="v9g8-YcQeXMahOsh9rem-45">
          <mxGeometry y="160" width="200" height="30" as="geometry" />
        </mxCell>
        <mxCell id="v9g8-YcQeXMahOsh9rem-54" value="&lt;p&gt;member&lt;/p&gt;" style="swimlane;whiteSpace=wrap;html=1;hachureGap=4;fontFamily=Architects Daughter;fontSource=https%3A%2F%2Ffonts.googleapis.com%2Fcss%3Ffamily%3DArchitects%2BDaughter;fontSize=20;startSize=40;labelBackgroundColor=none;fillColor=#B1DDF0;strokeColor=#BAC8D3;fontColor=#182E3E;rounded=0;" vertex="1" parent="1">
          <mxGeometry x="1350" width="200" height="190" as="geometry" />
        </mxCell>
        <mxCell id="v9g8-YcQeXMahOsh9rem-56" value="id" style="whiteSpace=wrap;html=1;labelBackgroundColor=none;fillColor=#B1DDF0;strokeColor=#BAC8D3;fontColor=#182E3E;rounded=0;" vertex="1" parent="v9g8-YcQeXMahOsh9rem-54">
          <mxGeometry y="40" width="200" height="30" as="geometry" />
        </mxCell>
        <mxCell id="v9g8-YcQeXMahOsh9rem-59" value="quizCreate&amp;nbsp; [ ids ]" style="whiteSpace=wrap;html=1;labelBackgroundColor=none;fillColor=#B1DDF0;strokeColor=#BAC8D3;fontColor=#182E3E;rounded=0;" vertex="1" parent="v9g8-YcQeXMahOsh9rem-54">
          <mxGeometry y="130" width="200" height="30" as="geometry" />
        </mxCell>
        <mxCell id="v9g8-YcQeXMahOsh9rem-60" value="serveyCreate [ids ]" style="whiteSpace=wrap;html=1;labelBackgroundColor=none;fillColor=#B1DDF0;strokeColor=#BAC8D3;fontColor=#182E3E;rounded=0;" vertex="1" parent="v9g8-YcQeXMahOsh9rem-54">
          <mxGeometry y="160" width="200" height="30" as="geometry" />
        </mxCell>
        <mxCell id="v9g8-YcQeXMahOsh9rem-66" value="loginId ( string)" style="whiteSpace=wrap;html=1;labelBackgroundColor=none;fillColor=#B1DDF0;strokeColor=#BAC8D3;fontColor=#182E3E;rounded=0;" vertex="1" parent="v9g8-YcQeXMahOsh9rem-54">
          <mxGeometry y="70" width="200" height="30" as="geometry" />
        </mxCell>
        <mxCell id="v9g8-YcQeXMahOsh9rem-85" value="user ( id )" style="whiteSpace=wrap;html=1;labelBackgroundColor=none;fillColor=#B1DDF0;strokeColor=#BAC8D3;fontColor=#182E3E;rounded=0;" vertex="1" parent="v9g8-YcQeXMahOsh9rem-54">
          <mxGeometry y="100" width="200" height="30" as="geometry" />
        </mxCell>
        <mxCell id="v9g8-YcQeXMahOsh9rem-75" value="&lt;p&gt;blog&lt;/p&gt;" style="swimlane;whiteSpace=wrap;html=1;hachureGap=4;fontFamily=Architects Daughter;fontSource=https%3A%2F%2Ffonts.googleapis.com%2Fcss%3Ffamily%3DArchitects%2BDaughter;fontSize=20;startSize=40;labelBackgroundColor=none;fillColor=#B1DDF0;strokeColor=#BAC8D3;fontColor=#182E3E;rounded=0;" vertex="1" parent="1">
          <mxGeometry x="1790" y="-620" width="200" height="190" as="geometry" />
        </mxCell>
        <mxCell id="v9g8-YcQeXMahOsh9rem-76" value="heading ( string)" style="whiteSpace=wrap;html=1;labelBackgroundColor=none;fillColor=#B1DDF0;strokeColor=#BAC8D3;fontColor=#182E3E;rounded=0;" vertex="1" parent="v9g8-YcQeXMahOsh9rem-75">
          <mxGeometry y="70" width="200" height="30" as="geometry" />
        </mxCell>
        <mxCell id="v9g8-YcQeXMahOsh9rem-77" value="id" style="whiteSpace=wrap;html=1;labelBackgroundColor=none;fillColor=#B1DDF0;strokeColor=#BAC8D3;fontColor=#182E3E;rounded=0;" vertex="1" parent="v9g8-YcQeXMahOsh9rem-75">
          <mxGeometry y="40" width="200" height="30" as="geometry" />
        </mxCell>
        <mxCell id="v9g8-YcQeXMahOsh9rem-82" value="content ( string)" style="whiteSpace=wrap;html=1;fontStyle=1;labelBackgroundColor=none;fillColor=#B1DDF0;strokeColor=#BAC8D3;fontColor=#182E3E;rounded=0;" vertex="1" parent="v9g8-YcQeXMahOsh9rem-75">
          <mxGeometry y="100" width="200" height="30" as="geometry" />
        </mxCell>
        <mxCell id="v9g8-YcQeXMahOsh9rem-91" value="comments [&amp;nbsp; ids ]" style="whiteSpace=wrap;html=1;fontStyle=1;labelBackgroundColor=none;fillColor=#B1DDF0;strokeColor=#BAC8D3;fontColor=#182E3E;rounded=0;" vertex="1" parent="v9g8-YcQeXMahOsh9rem-75">
          <mxGeometry y="130" width="200" height="30" as="geometry" />
        </mxCell>
        <mxCell id="v9g8-YcQeXMahOsh9rem-92" value="keywords [ string ]" style="whiteSpace=wrap;html=1;fontStyle=1;labelBackgroundColor=none;fillColor=#B1DDF0;strokeColor=#BAC8D3;fontColor=#182E3E;rounded=0;" vertex="1" parent="v9g8-YcQeXMahOsh9rem-75">
          <mxGeometry y="160" width="200" height="30" as="geometry" />
        </mxCell>
        <mxCell id="v9g8-YcQeXMahOsh9rem-86" value="&lt;p&gt;comments&lt;/p&gt;" style="swimlane;whiteSpace=wrap;html=1;hachureGap=4;fontFamily=Architects Daughter;fontSource=https%3A%2F%2Ffonts.googleapis.com%2Fcss%3Ffamily%3DArchitects%2BDaughter;fontSize=20;startSize=40;labelBackgroundColor=none;fillColor=#B1DDF0;strokeColor=#BAC8D3;fontColor=#182E3E;rounded=0;" vertex="1" parent="1">
          <mxGeometry x="1520" y="-730" width="200" height="160" as="geometry" />
        </mxCell>
        <mxCell id="v9g8-YcQeXMahOsh9rem-87" value="comment ( string)" style="whiteSpace=wrap;html=1;labelBackgroundColor=none;fillColor=#B1DDF0;strokeColor=#BAC8D3;fontColor=#182E3E;rounded=0;" vertex="1" parent="v9g8-YcQeXMahOsh9rem-86">
          <mxGeometry y="70" width="200" height="30" as="geometry" />
        </mxCell>
        <mxCell id="v9g8-YcQeXMahOsh9rem-88" value="id" style="whiteSpace=wrap;html=1;labelBackgroundColor=none;fillColor=#B1DDF0;strokeColor=#BAC8D3;fontColor=#182E3E;rounded=0;" vertex="1" parent="v9g8-YcQeXMahOsh9rem-86">
          <mxGeometry y="40" width="200" height="30" as="geometry" />
        </mxCell>
        <mxCell id="v9g8-YcQeXMahOsh9rem-89" value="user ( id )&amp;nbsp;" style="whiteSpace=wrap;html=1;labelBackgroundColor=none;fillColor=#B1DDF0;strokeColor=#BAC8D3;fontColor=#182E3E;rounded=0;" vertex="1" parent="v9g8-YcQeXMahOsh9rem-86">
          <mxGeometry y="100" width="200" height="30" as="geometry" />
        </mxCell>
        <mxCell id="v9g8-YcQeXMahOsh9rem-90" value="likes [ ids ]&amp;nbsp;" style="whiteSpace=wrap;html=1;labelBackgroundColor=none;fillColor=#B1DDF0;strokeColor=#BAC8D3;fontColor=#182E3E;rounded=0;" vertex="1" parent="v9g8-YcQeXMahOsh9rem-86">
          <mxGeometry y="130" width="200" height="30" as="geometry" />
        </mxCell>
        <mxCell id="v9g8-YcQeXMahOsh9rem-96" style="edgeStyle=orthogonalEdgeStyle;rounded=0;orthogonalLoop=1;jettySize=auto;html=1;exitX=0;exitY=0.5;exitDx=0;exitDy=0;entryX=1;entryY=0.5;entryDx=0;entryDy=0;labelBackgroundColor=none;strokeColor=#EEEEEE;fontColor=default;" edge="1" parent="1" source="v9g8-YcQeXMahOsh9rem-51" target="v9g8-YcQeXMahOsh9rem-56">
          <mxGeometry relative="1" as="geometry">
            <mxPoint x="1680" y="-130" as="targetPoint" />
          </mxGeometry>
        </mxCell>
        <mxCell id="v9g8-YcQeXMahOsh9rem-97" style="edgeStyle=orthogonalEdgeStyle;rounded=0;orthogonalLoop=1;jettySize=auto;html=1;exitX=0;exitY=0.5;exitDx=0;exitDy=0;entryX=1;entryY=0.5;entryDx=0;entryDy=0;labelBackgroundColor=none;strokeColor=#EEEEEE;fontColor=default;" edge="1" parent="1" source="v9g8-YcQeXMahOsh9rem-50" target="v9g8-YcQeXMahOsh9rem-6">
          <mxGeometry relative="1" as="geometry" />
        </mxCell>
        <mxCell id="v9g8-YcQeXMahOsh9rem-104" style="edgeStyle=orthogonalEdgeStyle;rounded=0;orthogonalLoop=1;jettySize=auto;html=1;exitX=1;exitY=0.5;exitDx=0;exitDy=0;entryX=0;entryY=0.75;entryDx=0;entryDy=0;labelBackgroundColor=none;fontColor=default;fillColor=none;strokeColor=#EEEEEE;" edge="1" parent="1" source="v9g8-YcQeXMahOsh9rem-71" target="v9g8-YcQeXMahOsh9rem-6">
          <mxGeometry relative="1" as="geometry">
            <Array as="points">
              <mxPoint x="1170" y="205" />
              <mxPoint x="1170" y="-478" />
            </Array>
          </mxGeometry>
        </mxCell>
        <mxCell id="v9g8-YcQeXMahOsh9rem-106" style="edgeStyle=orthogonalEdgeStyle;rounded=0;orthogonalLoop=1;jettySize=auto;html=1;exitX=1;exitY=0.5;exitDx=0;exitDy=0;labelBackgroundColor=none;strokeColor=#EEEEEE;fontColor=default;" edge="1" parent="1" source="v9g8-YcQeXMahOsh9rem-100">
          <mxGeometry relative="1" as="geometry">
            <mxPoint x="1350" y="60" as="targetPoint" />
            <Array as="points">
              <mxPoint x="1280" y="235" />
              <mxPoint x="1280" y="60" />
            </Array>
          </mxGeometry>
        </mxCell>
        <mxCell id="v9g8-YcQeXMahOsh9rem-108" style="edgeStyle=orthogonalEdgeStyle;rounded=0;orthogonalLoop=1;jettySize=auto;html=1;exitX=1;exitY=0.5;exitDx=0;exitDy=0;entryX=1;entryY=0.75;entryDx=0;entryDy=0;labelBackgroundColor=none;strokeColor=#EEEEEE;fontColor=default;" edge="1" parent="1" source="v9g8-YcQeXMahOsh9rem-85" target="v9g8-YcQeXMahOsh9rem-6">
          <mxGeometry relative="1" as="geometry" />
        </mxCell>
        <mxCell id="v9g8-YcQeXMahOsh9rem-109" style="edgeStyle=orthogonalEdgeStyle;rounded=0;orthogonalLoop=1;jettySize=auto;html=1;exitX=0;exitY=0.5;exitDx=0;exitDy=0;labelBackgroundColor=none;strokeColor=#b85450;fontColor=default;strokeWidth=3;fillColor=#f8cecc;" edge="1" parent="1" target="v9g8-YcQeXMahOsh9rem-32">
          <mxGeometry relative="1" as="geometry">
            <mxPoint x="1350" y="180" as="sourcePoint" />
            <mxPoint x="1090" y="-300" as="targetPoint" />
            <Array as="points">
              <mxPoint x="1130" y="180" />
              <mxPoint x="1130" y="-305" />
            </Array>
          </mxGeometry>
        </mxCell>
        <mxCell id="v9g8-YcQeXMahOsh9rem-110" style="edgeStyle=orthogonalEdgeStyle;rounded=0;orthogonalLoop=1;jettySize=auto;html=1;exitX=1;exitY=0.5;exitDx=0;exitDy=0;entryX=0;entryY=0.25;entryDx=0;entryDy=0;strokeColor=#EEEEEE;labelBackgroundColor=none;fontColor=default;" edge="1" parent="1" source="v9g8-YcQeXMahOsh9rem-101" target="v9g8-YcQeXMahOsh9rem-56">
          <mxGeometry relative="1" as="geometry">
            <Array as="points">
              <mxPoint x="1220" y="-125" />
              <mxPoint x="1220" y="48" />
              <mxPoint x="1350" y="48" />
            </Array>
          </mxGeometry>
        </mxCell>
        <mxCell id="v9g8-YcQeXMahOsh9rem-111" style="edgeStyle=orthogonalEdgeStyle;rounded=0;orthogonalLoop=1;jettySize=auto;html=1;exitX=1;exitY=0.25;exitDx=0;exitDy=0;entryX=0;entryY=0.5;entryDx=0;entryDy=0;labelBackgroundColor=none;strokeColor=#b85450;fontColor=default;strokeWidth=3;fillColor=#f8cecc;" edge="1" parent="1" source="v9g8-YcQeXMahOsh9rem-32" target="v9g8-YcQeXMahOsh9rem-64">
          <mxGeometry relative="1" as="geometry">
            <Array as="points">
              <mxPoint x="1090" y="-305" />
              <mxPoint x="1150" y="-305" />
              <mxPoint x="1150" y="-215" />
            </Array>
          </mxGeometry>
        </mxCell>
        <mxCell id="v9g8-YcQeXMahOsh9rem-113" style="edgeStyle=orthogonalEdgeStyle;rounded=0;orthogonalLoop=1;jettySize=auto;html=1;exitX=1;exitY=0.5;exitDx=0;exitDy=0;entryX=0;entryY=0.5;entryDx=0;entryDy=0;labelBackgroundColor=none;strokeColor=#b46504;fontColor=default;strokeWidth=3;fillColor=#fad7ac;" edge="1" parent="1" source="v9g8-YcQeXMahOsh9rem-15" target="v9g8-YcQeXMahOsh9rem-65">
          <mxGeometry relative="1" as="geometry">
            <Array as="points">
              <mxPoint x="1250" y="85" />
              <mxPoint x="1250" y="-185" />
            </Array>
          </mxGeometry>
        </mxCell>
        <mxCell id="v9g8-YcQeXMahOsh9rem-114" style="edgeStyle=orthogonalEdgeStyle;rounded=0;orthogonalLoop=1;jettySize=auto;html=1;exitX=1;exitY=0.25;exitDx=0;exitDy=0;entryX=0;entryY=0.75;entryDx=0;entryDy=0;labelBackgroundColor=none;strokeColor=#b46504;fontColor=default;strokeWidth=3;fillColor=#fad7ac;" edge="1" parent="1" source="v9g8-YcQeXMahOsh9rem-15" target="v9g8-YcQeXMahOsh9rem-10">
          <mxGeometry relative="1" as="geometry">
            <Array as="points">
              <mxPoint x="1080" y="85" />
              <mxPoint x="1200" y="85" />
              <mxPoint x="1200" y="-267" />
            </Array>
          </mxGeometry>
        </mxCell>
        <mxCell id="v9g8-YcQeXMahOsh9rem-115" style="edgeStyle=orthogonalEdgeStyle;rounded=0;orthogonalLoop=1;jettySize=auto;html=1;exitX=1;exitY=0.5;exitDx=0;exitDy=0;entryX=0;entryY=0.75;entryDx=0;entryDy=0;strokeColor=#EEEEEE;fontColor=default;labelBackgroundColor=none;" edge="1" parent="1" source="v9g8-YcQeXMahOsh9rem-88" target="v9g8-YcQeXMahOsh9rem-75">
          <mxGeometry relative="1" as="geometry" />
        </mxCell>
        <mxCell id="v9g8-YcQeXMahOsh9rem-116" style="edgeStyle=orthogonalEdgeStyle;rounded=0;orthogonalLoop=1;jettySize=auto;html=1;exitX=0;exitY=0.5;exitDx=0;exitDy=0;entryX=0;entryY=0.25;entryDx=0;entryDy=0;strokeColor=#EEEEEE;fontColor=default;labelBackgroundColor=none;" edge="1" parent="1" source="v9g8-YcQeXMahOsh9rem-89" target="v9g8-YcQeXMahOsh9rem-6">
          <mxGeometry relative="1" as="geometry">
            <Array as="points">
              <mxPoint x="1270" y="-615" />
              <mxPoint x="1270" y="-492" />
              <mxPoint x="1330" y="-492" />
            </Array>
          </mxGeometry>
        </mxCell>
        <mxCell id="v9g8-YcQeXMahOsh9rem-118" style="edgeStyle=orthogonalEdgeStyle;rounded=0;orthogonalLoop=1;jettySize=auto;html=1;exitX=1;exitY=0.5;exitDx=0;exitDy=0;strokeColor=#EEEEEE;fontColor=default;labelBackgroundColor=none;" edge="1" parent="1" source="v9g8-YcQeXMahOsh9rem-83">
          <mxGeometry relative="1" as="geometry">
            <mxPoint x="1790" y="-560" as="targetPoint" />
            <Array as="points">
              <mxPoint x="1680" y="-155" />
              <mxPoint x="1680" y="-560" />
            </Array>
          </mxGeometry>
        </mxCell>
        <mxCell id="v9g8-YcQeXMahOsh9rem-119" style="edgeStyle=orthogonalEdgeStyle;rounded=0;orthogonalLoop=1;jettySize=auto;html=1;exitX=0;exitY=0.5;exitDx=0;exitDy=0;entryX=0.999;entryY=0.104;entryDx=0;entryDy=0;entryPerimeter=0;strokeColor=#EEEEEE;fontColor=default;labelBackgroundColor=none;" edge="1" parent="1" source="v9g8-YcQeXMahOsh9rem-90" target="v9g8-YcQeXMahOsh9rem-4">
          <mxGeometry relative="1" as="geometry" />
        </mxCell>
        <mxCell id="v9g8-YcQeXMahOsh9rem-120" style="edgeStyle=orthogonalEdgeStyle;rounded=0;orthogonalLoop=1;jettySize=auto;html=1;exitX=1;exitY=0.5;exitDx=0;exitDy=0;entryX=0;entryY=0.25;entryDx=0;entryDy=0;strokeColor=#EEEEEE;fontColor=default;labelBackgroundColor=none;" edge="1" parent="1" source="v9g8-YcQeXMahOsh9rem-22" target="v9g8-YcQeXMahOsh9rem-34">
          <mxGeometry relative="1" as="geometry">
            <Array as="points">
              <mxPoint x="760" y="-222" />
              <mxPoint x="825" y="-222" />
            </Array>
          </mxGeometry>
        </mxCell>
        <mxCell id="v9g8-YcQeXMahOsh9rem-121" style="edgeStyle=orthogonalEdgeStyle;rounded=0;orthogonalLoop=1;jettySize=auto;html=1;exitX=1;exitY=0.5;exitDx=0;exitDy=0;entryX=0;entryY=0.5;entryDx=0;entryDy=0;strokeColor=#EEEEEE;fontColor=default;labelBackgroundColor=none;" edge="1" parent="1" source="v9g8-YcQeXMahOsh9rem-37" target="v9g8-YcQeXMahOsh9rem-33">
          <mxGeometry relative="1" as="geometry">
            <Array as="points">
              <mxPoint x="740" y="100" />
              <mxPoint x="820" y="100" />
              <mxPoint x="820" y="-245" />
            </Array>
          </mxGeometry>
        </mxCell>
        <mxCell id="v9g8-YcQeXMahOsh9rem-123" style="edgeStyle=orthogonalEdgeStyle;rounded=0;orthogonalLoop=1;jettySize=auto;html=1;entryX=0;entryY=0.25;entryDx=0;entryDy=0;strokeColor=#EEEEEE;fontColor=default;labelBackgroundColor=none;" edge="1" parent="1" target="v9g8-YcQeXMahOsh9rem-18">
          <mxGeometry relative="1" as="geometry">
            <mxPoint x="740" y="110" as="sourcePoint" />
            <Array as="points">
              <mxPoint x="840" y="110" />
              <mxPoint x="840" y="138" />
            </Array>
          </mxGeometry>
        </mxCell>
        <mxCell id="v9g8-YcQeXMahOsh9rem-107" style="edgeStyle=orthogonalEdgeStyle;rounded=0;orthogonalLoop=1;jettySize=auto;html=1;exitX=1;exitY=0.75;exitDx=0;exitDy=0;labelBackgroundColor=none;strokeColor=#EEEEEE;fontColor=default;" edge="1" parent="1" source="v9g8-YcQeXMahOsh9rem-15">
          <mxGeometry relative="1" as="geometry">
            <mxPoint x="1350" y="140" as="targetPoint" />
            <Array as="points">
              <mxPoint x="1120" y="92" />
              <mxPoint x="1120" y="140" />
            </Array>
          </mxGeometry>
        </mxCell>
      </root>
    </mxGraphModel>
  </diagram>
</mxfile>
